<svg width="16" height="16" viewBox="0 0 16 16" fill="none" xmlns="http://www.w3.org/2000/svg">
<g id="Base_Icon">
<mask id="mask0_10861_545568" style="mask-type:alpha" maskUnits="userSpaceOnUse" x="0" y="0" width="16" height="16">
<rect id="Bounding box" width="16" height="16" fill="#D9D9D9"/>
</mask>
<g mask="url(#mask0_10861_545568)">
<path id="call_missed" d="M3.33325 6.68044V9.46777C3.33325 9.60966 3.28536 9.72844 3.18959 9.82411C3.09392 9.91988 2.97514 9.96777 2.83325 9.96777C2.69136 9.96777 2.57259 9.91988 2.47692 9.82411C2.38114 9.72844 2.33325 9.60966 2.33325 9.46777V5.57027C2.33325 5.3985 2.39075 5.25511 2.50575 5.14011C2.62064 5.02522 2.76403 4.96777 2.93592 4.96777H6.83325C6.97514 4.96777 7.09392 5.01561 7.18959 5.11127C7.28536 5.20705 7.33325 5.32588 7.33325 5.46777C7.33325 5.60966 7.28536 5.72844 7.18959 5.82411C7.09392 5.91988 6.97514 5.96777 6.83325 5.96777H4.03575L7.88459 9.81644C7.92303 9.85488 7.97214 9.87411 8.03192 9.87411C8.09181 9.87411 8.14097 9.85488 8.17942 9.81644L12.6191 5.37677C12.7183 5.27755 12.8344 5.22861 12.9673 5.22994C13.1001 5.23116 13.2183 5.2835 13.3218 5.38694C13.4183 5.49038 13.4683 5.6075 13.4718 5.73827C13.4751 5.86905 13.4251 5.98611 13.3218 6.08944L8.88575 10.5254C8.76531 10.6459 8.63031 10.7352 8.48075 10.7933C8.33109 10.8515 8.18147 10.8806 8.03192 10.8806C7.88236 10.8806 7.73281 10.8515 7.58325 10.7933C7.4337 10.7352 7.29864 10.6459 7.17809 10.5254L3.33325 6.68044Z" fill="#F44649"/>
</g>
</g>
</svg>
